<svg width="1270" height="569" viewBox="0 0 1270 569" fill="none" xmlns="http://www.w3.org/2000/svg">
<g opacity="0.3">
<path d="M445.227 910.635C36.3851 910.635 -15.1489 698.888 3.1124 592.152C30.745 430.656 257.33 345.435 290.486 296.096C323.646 246.732 290.486 174.967 290.486 174.967C290.486 174.967 528.125 300.581 423.122 430.656C318.122 560.755 506.019 717.767 544.703 623.55C583.39 529.358 550.23 457.568 550.23 457.568C550.23 457.568 688.39 488.965 710.495 654.947C732.601 820.929 500.489 910.635 445.227 910.635" fill="#FC0001"/>
<path d="M749.191 143.535C541.4 238.415 616.557 354.373 732.61 444.102C875.788 554.778 931.564 731.198 622.083 807.456C383.177 866.333 483.922 919.611 483.922 919.611C483.922 919.611 1027.58 1013.88 1218.94 744.643C1384.73 511.379 1080.78 264.67 1080.78 264.67C1080.78 264.67 1119.46 444.102 953.671 430.657C810.908 419.062 807.6 311.054 870.774 215.329C953.671 89.7293 798.929 0.00016484 798.929 0.00016484C798.929 0.00016484 837.615 103.174 749.191 143.535" fill="#FC0001"/>
<path d="M356.808 345.429C-90.8355 506.918 -46.6255 838.861 213.119 915.123C472.863 991.385 677.337 865.78 682.865 744.669C688.39 623.559 638.652 547.297 638.652 547.297C638.652 547.297 561.282 753.634 406.543 650.477C251.803 547.297 356.808 345.429 356.808 345.429" fill="#FB6D01"/>
<path d="M833.45 457.581C628.975 394.792 637.423 245.814 685.62 207.496C751.937 154.783 785.778 163.891 816.873 136.854C855.555 103.196 833.45 39.2806 833.45 39.2806C833.45 39.2806 932.93 127.877 850.032 197.419C778.544 257.356 761.609 376.837 833.45 457.581" fill="#FB6D01"/>
<path d="M1113.02 311.017C1400.39 542.036 1243.81 838.855 1036.57 894.925C829.326 950.995 796.167 948.765 716.035 912.863C635.9 876.986 738.141 726.715 884.591 699.782C1031.04 672.875 959.198 645.967 890.119 583.158C821.034 520.349 846.826 399.239 846.826 399.239C846.826 399.239 952.749 494.201 1052.23 457.564C1147.08 422.618 1113.02 311.017 1113.02 311.017" fill="#FB6D01"/>
<path d="M912.199 486.748C859.7 625.817 1130.5 652.735 1094.57 760.387C1058.65 868.039 796.146 894.958 796.146 894.958C796.146 894.958 1117.83 945.937 1216.15 778.333C1299.05 637.015 1147.07 569.73 1042.07 563.006C917.84 555.041 912.199 486.748 912.199 486.748" fill="#EFA204"/>
<path d="M1147.09 357.384C1334.99 546.531 1212.21 668.294 1134.19 607.836C1056.18 547.403 1197.75 463.548 1147.09 357.384Z" fill="#EFA204"/>
<path d="M268.377 412.727C-32.8108 589.909 -9.78468 771.604 139.428 870.285C288.641 968.966 541.934 966.721 602.725 847.86C663.516 728.975 566.803 708.794 384.431 677.389C202.062 645.984 268.377 412.727 268.377 412.727Z" fill="#EFA204"/>
<path d="M779.568 527.119C926.015 619.076 975.752 720.003 920.491 809.734C865.225 899.442 622.066 935.325 660.749 829.901C699.435 724.5 818.252 704.31 818.252 625.798C818.252 547.31 779.568 527.119 779.568 527.119Z" fill="#EFA204"/>
<path d="M188.256 495.688C-13.4571 677.367 84.1769 880.714 211.284 907.64C338.392 934.566 528.133 876.998 541.948 814.194C555.766 751.39 533.66 719.976 533.66 719.976C533.66 719.976 564.058 751.39 459.054 796.243C354.05 841.096 331.947 829.877 331.947 829.877C331.947 829.877 387.207 767.073 262.865 659.417C138.519 551.76 188.256 495.688 188.256 495.688" fill="#FACF67"/>
<path d="M608.263 554.01C693.922 650.444 644.186 749.157 644.186 749.157C644.186 749.157 644.186 711.02 602.736 672.884C561.289 634.747 608.263 554.01 608.263 554.01Z" fill="#FACF67"/>
<path d="M1116.69 820.922C1251.09 733.65 1210.64 643.737 1105.64 603.35C1000.64 562.985 992.346 574.19 992.346 574.19C992.346 574.19 1075.14 647.089 1097.35 681.851C1136.03 742.42 1111.16 820.922 1014.45 861.286C917.738 901.673 1047.61 865.786 1116.69 820.922Z" fill="#FACF67"/>
<path d="M804.449 165.992C699.447 217.571 635.891 251.22 660.759 331.979C692.55 435.188 804.449 430.667 804.449 430.667C804.449 430.667 732.605 374.593 740.893 305.059C749.183 235.526 804.449 165.992 804.449 165.992Z" fill="#FACF67"/>
<path d="M967.471 372.351C1053.13 305.07 989.249 277.06 975.759 224.308C965.631 184.68 1000.63 143.571 1000.63 143.571C1000.63 143.571 911.207 215.371 948.127 261.689C1008.92 337.957 967.471 372.351 967.471 372.351Z" fill="#FC0001"/>
<path d="M423.119 212.359C445.225 266.198 444.139 293.996 393.644 342.436C292.325 439.642 371.538 505.434 369.696 500.939C367.854 496.469 359.765 405.591 423.119 364.885C511.539 308.058 423.119 212.359 423.119 212.359" fill="#FCE8B3"/>
<path d="M478.395 509.895C443.394 569.717 474.71 601.106 474.71 601.106L478.395 509.895Z" fill="#FC0001"/>
<path d="M1183.94 471.014C1266.84 539.799 1283.42 605.598 1215.26 705.765C1224.47 659.422 1167.36 625.029 1167.36 625.029C1167.36 625.029 1221.15 587.672 1218.94 551.75C1217.1 521.85 1183.94 471.014 1183.94 471.014" fill="#FCE8B3"/>
<path d="M1149.84 601.882C1185.76 526.361 1118.53 498.694 1066.95 471.775C1015.37 444.881 1019.05 373.845 1019.05 373.845C1019.05 373.845 953.658 425.44 992.34 500.937C1020.69 556.27 1149.84 601.882 1149.84 601.882Z" fill="#FACF67"/>
</g>
</svg>