<svg width="976" height="640" viewBox="0 0 976 640" fill="none" xmlns="http://www.w3.org/2000/svg">
<g opacity="0.3">
<path d="M360.467 797.696C124.959 797.696 95.2737 642.903 105.793 564.877C121.71 446.819 252.231 384.521 271.331 348.453C290.432 312.367 271.331 259.905 271.331 259.905C271.331 259.905 408.219 351.732 347.734 446.819C287.25 541.925 395.486 656.704 417.769 587.829C440.054 518.973 420.953 466.493 420.953 466.493C420.953 466.493 500.538 489.445 513.271 610.781C526.005 732.118 392.3 797.696 360.467 797.696Z" fill="#FC0001"/>
<path d="M535.562 236.927C415.866 306.287 459.159 391.055 526.01 456.649C608.486 537.555 640.615 666.523 462.343 722.269C324.724 765.31 382.757 804.257 382.757 804.257C382.757 804.257 695.925 873.172 806.153 676.351C901.658 505.83 726.567 325.48 726.567 325.48C726.567 325.48 748.851 456.649 653.35 446.821C571.113 438.344 569.208 359.388 605.598 289.41C653.35 197.594 564.213 132 564.213 132C564.213 132 586.497 207.423 535.562 236.927Z" fill="#FC0001"/>
<path d="M309.534 384.517C51.6754 502.569 77.1419 745.227 226.764 800.976C376.386 856.726 494.171 764.905 497.355 676.371C500.538 587.836 471.887 532.087 471.887 532.087C471.887 532.087 427.319 682.924 338.184 607.514C249.048 532.087 309.534 384.517 309.534 384.517Z" fill="#FB6D01"/>
<path d="M584.098 466.503C466.312 420.602 471.179 311.696 498.942 283.685C537.144 245.15 556.637 251.809 574.549 232.044C596.831 207.439 584.098 160.715 584.098 160.715C584.098 160.715 641.402 225.481 593.65 276.318C552.47 320.133 542.715 407.477 584.098 466.503Z" fill="#FB6D01"/>
<path d="M745.139 359.361C910.677 528.241 820.48 745.222 701.102 786.211C581.723 827.199 562.622 825.569 516.463 799.324C470.302 773.098 529.197 663.245 613.557 643.557C697.918 623.887 656.534 604.217 616.742 558.302C576.946 512.387 591.803 423.853 591.803 423.853C591.803 423.853 652.819 493.272 710.123 466.49C764.763 440.944 745.139 359.361 745.139 359.361Z" fill="#FB6D01"/>
<path d="M629.461 487.824C599.219 589.487 755.207 609.165 734.514 687.861C713.821 766.557 562.61 786.235 562.61 786.235C562.61 786.235 747.909 823.502 804.549 700.98C852.3 597.673 764.755 548.486 704.27 543.571C632.71 537.748 629.461 487.824 629.461 487.824Z" fill="#EFA204"/>
<path d="M764.766 393.256C873.003 531.527 802.275 620.538 757.338 576.343C712.4 532.165 793.946 470.864 764.766 393.256Z" fill="#EFA204"/>
<path d="M258.595 433.713C85.0996 563.237 98.3635 696.061 184.316 768.199C270.268 840.337 416.174 838.696 451.192 751.805C486.209 664.898 430.499 650.145 325.446 627.187C220.395 604.23 258.595 433.713 258.595 433.713Z" fill="#EFA204"/>
<path d="M553.06 517.337C637.419 584.559 666.069 658.339 634.237 723.935C602.402 789.513 462.333 815.745 484.616 738.677C506.901 661.627 575.343 646.867 575.343 589.473C575.343 532.096 553.06 517.337 553.06 517.337Z" fill="#EFA204"/>
<path d="M212.442 494.359C96.2481 627.171 152.489 775.822 225.708 795.506C298.926 815.189 408.224 773.106 416.182 727.195C424.142 681.284 411.408 658.32 411.408 658.32C411.408 658.32 428.918 681.284 368.432 714.072C307.946 746.861 295.213 738.66 295.213 738.66C295.213 738.66 327.046 692.749 255.42 614.049C183.792 535.349 212.442 494.359 212.442 494.359Z" fill="#FACF67"/>
<path d="M454.382 536.994C503.725 607.49 475.075 679.651 475.075 679.651C475.075 679.651 475.075 651.773 451.198 623.894C427.323 596.015 454.382 536.994 454.382 536.994Z" fill="#FACF67"/>
<path d="M747.255 732.113C824.676 668.315 801.375 602.587 740.888 573.063C680.405 543.556 675.628 551.746 675.628 551.746C675.628 551.746 723.32 605.037 736.113 630.449C758.398 674.727 744.071 732.113 688.363 761.62C632.651 791.144 707.463 764.91 747.255 732.113Z" fill="#FACF67"/>
<path d="M567.392 253.344C506.907 291.049 470.297 315.648 484.621 374.684C502.934 450.132 567.392 446.828 567.392 446.828C567.392 446.828 526.008 405.836 530.781 355.006C535.557 304.175 567.392 253.344 567.392 253.344Z" fill="#FACF67"/>
<path d="M661.299 404.197C710.642 355.014 673.844 334.537 666.073 295.975C660.239 267.006 680.399 236.954 680.399 236.954C680.399 236.954 628.889 289.441 650.157 323.301C685.175 379.055 661.299 404.197 661.299 404.197Z" fill="#FC0001"/>
<path d="M347.732 287.239C360.466 326.597 359.841 346.918 330.754 382.329C272.39 453.389 318.02 501.484 316.959 498.198C315.898 494.931 311.238 428.497 347.732 398.74C398.666 357.198 347.732 287.239 347.732 287.239Z" fill="#FCE8B3"/>
<path d="M379.573 504.745C359.411 548.476 377.45 571.423 377.45 571.423L379.573 504.745Z" fill="#FC0001"/>
<path d="M189.624 567.064C148.241 687.307 149.299 751.788 212.967 781.308C276.636 810.828 294.198 694.146 255.415 665.442C180.073 609.697 189.624 567.064 189.624 567.064Z" fill="#FCE8B3"/>
<path d="M593.925 805.339C470.833 829.383 461.281 792.231 447.486 764.901C433.693 737.572 506.591 667.042 587.558 691.658C717.018 731.017 677.757 615.145 677.757 615.145C677.757 615.145 742.485 636.999 715.958 722.273C691.761 800.027 617.905 800.665 593.925 805.339Z" fill="#FCE8B3"/>
<path d="M554.651 558.325C518.042 609.158 522.819 643.58 538.735 681.292C554.651 719.004 522.819 750.154 527.592 750.154C532.369 750.154 589.669 699.338 564.201 641.945C538.735 584.568 554.651 558.325 554.651 558.325Z" fill="#FB6D01"/>
<path d="M785.992 476.322C833.744 526.606 843.295 574.706 804.033 647.931C809.339 614.053 776.443 588.911 776.443 588.911C776.443 588.911 807.429 561.602 806.154 535.342C805.093 513.485 785.992 476.322 785.992 476.322Z" fill="#FCE8B3"/>
<path d="M766.352 571.99C787.044 516.782 748.313 496.557 718.6 476.879C688.888 457.218 691.011 405.29 691.011 405.29C691.011 405.29 653.342 443.006 675.625 498.197C691.953 538.646 766.352 571.99 766.352 571.99Z" fill="#FACF67"/>
</g>
<g filter="url(#filter0_f_404_891)">
<circle cx="488.014" cy="483.5" r="187.5" fill="#FF0000"/>
</g>
<defs>
<filter id="filter0_f_404_891" x="0.513916" y="-4" width="975" height="975" filterUnits="userSpaceOnUse" color-interpolation-filters="sRGB">
<feFlood flood-opacity="0" result="BackgroundImageFix"/>
<feBlend mode="normal" in="SourceGraphic" in2="BackgroundImageFix" result="shape"/>
<feGaussianBlur stdDeviation="150" result="effect1_foregroundBlur_404_891"/>
</filter>
</defs>
</svg>
